<?xml version="1.0" encoding="utf-8"?>
<!-- Generated by IcoMoon.io -->
<!DOCTYPE svg PUBLIC "-//W3C//DTD SVG 1.1//EN" "http://www.w3.org/Graphics/SVG/1.1/DTD/svg11.dtd">
<svg version="1.1" xmlns="http://www.w3.org/2000/svg" xmlns:xlink="http://www.w3.org/1999/xlink" width="512" height="512" viewBox="0 0 512 512">
<path d="M464 0h-416c-8.832 0-16 7.168-16 16v480c0 8.848 7.168 16 16 16h416c8.848 0 16-7.152 16-16v-480c0-8.832-7.152-16-16-16zM80 448c-8.832 0-16-7.152-16-16s7.168-16 16-16 16 7.152 16 16-7.168 16-16 16zM80 384c-8.832 0-16-7.152-16-16s7.168-16 16-16 16 7.152 16 16-7.168 16-16 16zM80 320c-8.832 0-16-7.152-16-16s7.168-16 16-16 16 7.152 16 16-7.168 16-16 16zM80 256c-8.832 0-16-7.168-16-16s7.168-16 16-16 16 7.168 16 16-7.168 16-16 16zM80 192c-8.832 0-16-7.168-16-16s7.168-16 16-16 16 7.168 16 16-7.168 16-16 16zM80 128c-8.832 0-16-7.168-16-16s7.168-16 16-16 16 7.168 16 16-7.168 16-16 16zM80 64c-8.832 0-16-7.168-16-16s7.168-16 16-16 16 7.168 16 16-7.168 16-16 16zM384 464c0 8.848-7.152 16-16 16h-224c-8.832 0-16-7.152-16-16v-160c0-8.848 7.168-16 16-16h224c8.848 0 16 7.152 16 16v160zM384 240c0 8.832-7.152 16-16 16h-224c-8.832 0-16-7.168-16-16v-192c0-8.832 7.168-16 16-16h224c8.848 0 16 7.168 16 16v192zM432 448c-8.848 0-16-7.152-16-16s7.152-16 16-16 16 7.152 16 16-7.152 16-16 16zM432 384c-8.848 0-16-7.152-16-16s7.152-16 16-16 16 7.152 16 16-7.152 16-16 16zM432 320c-8.848 0-16-7.152-16-16s7.152-16 16-16 16 7.152 16 16-7.152 16-16 16zM432 256c-8.848 0-16-7.168-16-16s7.152-16 16-16 16 7.168 16 16-7.152 16-16 16zM432 192c-8.848 0-16-7.168-16-16s7.152-16 16-16 16 7.168 16 16-7.152 16-16 16zM432 128c-8.848 0-16-7.168-16-16s7.152-16 16-16 16 7.168 16 16-7.152 16-16 16zM432 64c-8.848 0-16-7.168-16-16s7.152-16 16-16 16 7.168 16 16-7.152 16-16 16z"></path>
</svg>
